{
    "asset" : {
        "generator" : "Khronos glTF Blender I/O v1.7.33",
        "version" : "2.0"
    },
    "scene" : 0,
    "scenes" : [
        {
            "name" : "Scene",
            "nodes" : [
                0,
                1,
                2,
                3
            ]
        }
    ],
    "nodes" : [
        {
            "mesh" : 0,
            "name" : "Cube",
            "scale" : [
                3.2694098949432373,
                0.3158106505870819,
                5.838772296905518
            ],
            "translation" : [
                0,
                4.352477550506592,
                -0.04863574355840683
            ]
        },
        {
            "mesh" : 1,
            "name" : "Cube.001",
            "scale" : [
                1.5209336280822754,
                0.16253799200057983,
                1.5797119140625
            ],
            "translation" : [
                0.04713618755340576,
                3.1831202507019043,
                6.628903388977051
            ]
        },
        {
            "mesh" : 2,
            "name" : "Cylinder",
            "scale" : [
                0.5298175811767578,
                0.5298175811767578,
                0.5298175811767578
            ],
            "translation" : [
                0.09384603053331375,
                5.203709602355957,
                -1.7321512699127197
            ]
        },
        {
            "mesh" : 3,
            "name" : "Cylinder.002",
            "scale" : [
                0.2879159450531006,
                0.2879159450531006,
                0.2879159450531006
            ],
            "translation" : [
                0.7266510725021362,
                4.9677557945251465,
                -0.9478521943092346
            ]
        }
    ],
    "materials" : [
        {
            "doubleSided" : true,
            "name" : "Material",
            "pbrMetallicRoughness" : {}
        },
        {
            "doubleSided" : true,
            "name" : "Material.003",
            "pbrMetallicRoughness" : {}
        },
        {
            "doubleSided" : true,
            "name" : "Material.001",
            "pbrMetallicRoughness" : {}
        },
        {
            "doubleSided" : true,
            "name" : "Material.002",
            "pbrMetallicRoughness" : {}
        }
    ],
    "meshes" : [
        {
            "name" : "Cube",
            "primitives" : [
                {
                    "attributes" : {
                        "POSITION" : 0,
                        "NORMAL" : 1,
                        "TEXCOORD_0" : 2
                    },
                    "indices" : 3,
                    "material" : 0
                }
            ]
        },
        {
            "name" : "Cube.001",
            "primitives" : [
                {
                    "attributes" : {
                        "POSITION" : 4,
                        "NORMAL" : 5,
                        "TEXCOORD_0" : 6
                    },
                    "indices" : 7,
                    "material" : 1
                }
            ]
        },
        {
            "name" : "Cylinder",
            "primitives" : [
                {
                    "attributes" : {
                        "POSITION" : 8,
                        "NORMAL" : 9,
                        "TEXCOORD_0" : 10
                    },
                    "indices" : 11,
                    "material" : 2
                }
            ]
        },
        {
            "name" : "Cylinder.002",
            "primitives" : [
                {
                    "attributes" : {
                        "POSITION" : 12,
                        "NORMAL" : 13,
                        "TEXCOORD_0" : 14
                    },
                    "indices" : 15,
                    "material" : 3
                }
            ]
        }
    ],
    "accessors" : [
        {
            "bufferView" : 0,
            "componentType" : 5126,
            "count" : 234,
            "max" : [
                1,
                1,
                1
            ],
            "min" : [
                -1,
                -13.492268562316895,
                -1
            ],
            "type" : "VEC3"
        },
        {
            "bufferView" : 1,
            "componentType" : 5126,
            "count" : 234,
            "type" : "VEC3"
        },
        {
            "bufferView" : 2,
            "componentType" : 5126,
            "count" : 234,
            "type" : "VEC2"
        },
        {
            "bufferView" : 3,
            "componentType" : 5123,
            "count" : 516,
            "type" : "SCALAR"
        },
        {
            "bufferView" : 4,
            "componentType" : 5126,
            "count" : 544,
            "max" : [
                1,
                21.831989288330078,
                1
            ],
            "min" : [
                -1.1156831979751587,
                -19.435440063476562,
                -9.893421173095703
            ],
            "type" : "VEC3"
        },
        {
            "bufferView" : 5,
            "componentType" : 5126,
            "count" : 544,
            "type" : "VEC3"
        },
        {
            "bufferView" : 6,
            "componentType" : 5126,
            "count" : 544,
            "type" : "VEC2"
        },
        {
            "bufferView" : 7,
            "componentType" : 5123,
            "count" : 1176,
            "type" : "SCALAR"
        },
        {
            "bufferView" : 8,
            "componentType" : 5126,
            "count" : 704,
            "max" : [
                1,
                3.346632957458496,
                1
            ],
            "min" : [
                -1,
                -1,
                -1
            ],
            "type" : "VEC3"
        },
        {
            "bufferView" : 9,
            "componentType" : 5126,
            "count" : 704,
            "type" : "VEC3"
        },
        {
            "bufferView" : 10,
            "componentType" : 5126,
            "count" : 704,
            "type" : "VEC2"
        },
        {
            "bufferView" : 11,
            "componentType" : 5123,
            "count" : 2868,
            "type" : "SCALAR"
        },
        {
            "bufferView" : 12,
            "componentType" : 5126,
            "count" : 588,
            "max" : [
                1,
                1,
                18.156850814819336
            ],
            "min" : [
                -3.5238306522369385,
                -1.0000019073486328,
                -11.928736686706543
            ],
            "type" : "VEC3"
        },
        {
            "bufferView" : 13,
            "componentType" : 5126,
            "count" : 588,
            "type" : "VEC3"
        },
        {
            "bufferView" : 14,
            "componentType" : 5126,
            "count" : 588,
            "type" : "VEC2"
        },
        {
            "bufferView" : 15,
            "componentType" : 5123,
            "count" : 2268,
            "type" : "SCALAR"
        }
    ],
    "bufferViews" : [
        {
            "buffer" : 0,
            "byteLength" : 2808,
            "byteOffset" : 0
        },
        {
            "buffer" : 0,
            "byteLength" : 2808,
            "byteOffset" : 2808
        },
        {
            "buffer" : 0,
            "byteLength" : 1872,
            "byteOffset" : 5616
        },
        {
            "buffer" : 0,
            "byteLength" : 1032,
            "byteOffset" : 7488
        },
        {
            "buffer" : 0,
            "byteLength" : 6528,
            "byteOffset" : 8520
        },
        {
            "buffer" : 0,
            "byteLength" : 6528,
            "byteOffset" : 15048
        },
        {
            "buffer" : 0,
            "byteLength" : 4352,
            "byteOffset" : 21576
        },
        {
            "buffer" : 0,
            "byteLength" : 2352,
            "byteOffset" : 25928
        },
        {
            "buffer" : 0,
            "byteLength" : 8448,
            "byteOffset" : 28280
        },
        {
            "buffer" : 0,
            "byteLength" : 8448,
            "byteOffset" : 36728
        },
        {
            "buffer" : 0,
            "byteLength" : 5632,
            "byteOffset" : 45176
        },
        {
            "buffer" : 0,
            "byteLength" : 5736,
            "byteOffset" : 50808
        },
        {
            "buffer" : 0,
            "byteLength" : 7056,
            "byteOffset" : 56544
        },
        {
            "buffer" : 0,
            "byteLength" : 7056,
            "byteOffset" : 63600
        },
        {
            "buffer" : 0,
            "byteLength" : 4704,
            "byteOffset" : 70656
        },
        {
            "buffer" : 0,
            "byteLength" : 4536,
            "byteOffset" : 75360
        }
    ],
    "buffers" : [
        {
            "byteLength" : 79896,
            "uri" : "data:application/octet-stream;base64,"
        }
    ]
}
